<?xml version="1.0" standalone="no"?>
<!DOCTYPE svg PUBLIC "-//W3C//DTD SVG 20010904//EN"
 "http://www.w3.org/TR/2001/REC-SVG-20010904/DTD/svg10.dtd">
<svg version="1.0" xmlns="http://www.w3.org/2000/svg"
 width="300.000000pt" height="300.000000pt" viewBox="0 0 300.000000 300.000000"
 preserveAspectRatio="xMidYMid meet">
<metadata>
Created by potrace 1.10, written by Peter Selinger 2001-2011
</metadata>
<g transform="translate(0.000000,300.000000) scale(0.100000,-0.100000)"
fill="#000000" stroke="none">
<path d="M1854 2083 c-12 -2 -30 -13 -40 -24 -15 -17 -16 -23 -5 -41 11 -18
11 -22 -3 -30 -17 -10 -22 -43 -8 -52 5 -3 25 -3 45 1 27 4 37 11 37 24 0 11
-6 19 -12 20 -7 1 -2 4 12 8 17 5 24 13 22 27 -2 14 -1 16 6 5 7 -10 11 -10
17 -1 5 8 11 6 21 -7 7 -10 13 -22 13 -28 0 -5 -6 -2 -13 8 -14 18 -14 18 -21
-2 -4 -13 -12 -18 -21 -14 -12 4 -14 0 -9 -20 6 -23 3 -26 -32 -32 -56 -9 -76
-27 -64 -58 5 -14 15 -27 22 -29 7 -2 14 -23 16 -45 l3 -41 -218 -113 c-119
-62 -256 -134 -304 -159 -72 -37 -89 -43 -100 -32 -11 11 -10 15 5 23 25 14
21 32 -6 25 -20 -5 -25 1 -44 54 l-22 60 31 30 c21 22 46 34 81 41 63 11 73
20 49 42 -18 16 -25 16 -118 -3 -54 -12 -145 -24 -202 -29 -56 -4 -105 -11
-109 -14 -13 -14 41 -57 79 -63 21 -4 43 -13 49 -20 6 -8 22 -14 35 -14 13 0
24 -5 24 -11 0 -7 10 -9 25 -7 22 5 26 0 38 -41 12 -42 12 -47 -6 -53 -10 -4
-16 -11 -14 -15 3 -5 -19 -22 -49 -39 l-53 -31 -63 38 c-184 112 -394 80 -535
-81 -35 -40 -73 -127 -85 -192 -22 -125 29 -267 128 -357 98 -90 203 -122 333
-104 90 14 158 45 214 97 46 45 105 136 113 175 6 30 6 30 68 26 33 -3 75 -8
91 -13 38 -11 81 0 111 29 38 36 31 49 -28 51 -46 1 -48 2 -14 5 49 5 87 -4
83 -19 -2 -12 41 -13 116 -2 52 8 82 64 34 64 -13 0 -27 3 -30 7 -4 4 -31 6
-60 4 -50 -2 -54 0 -88 37 l-35 40 22 13 c12 8 71 61 132 119 193 185 212 202
212 191 0 -18 -4 -26 -12 -23 -5 1 -8 -5 -8 -13 0 -8 -7 -15 -15 -15 -8 0 -15
-7 -15 -16 0 -8 -5 -12 -11 -9 -12 8 -59 -33 -59 -52 0 -7 -5 -13 -10 -13 -6
0 -47 -35 -91 -77 -75 -73 -117 -128 -105 -140 2 -3 113 99 245 227 l241 232
20 -23 c11 -13 19 -29 20 -34 0 -6 11 -30 23 -54 l24 -44 -62 -61 c-94 -94
-133 -199 -121 -325 14 -140 111 -271 250 -340 59 -29 80 -34 160 -37 73 -3
104 1 145 16 80 29 134 64 189 125 108 118 131 290 60 442 -30 64 -130 163
-200 197 -75 37 -178 53 -249 38 -30 -5 -56 -9 -58 -7 -2 2 -2 28 0 57 1 29 3
130 3 223 1 143 -2 175 -16 202 -22 40 -35 48 -53 33 -26 -22 -56 -8 -88 43
-17 27 -32 30 -83 20z m26 -44 c0 -11 -8 -32 -19 -45 l-19 -24 -4 30 c-3 17
-1 30 4 30 5 0 7 4 4 9 -6 8 7 18 27 20 4 1 7 -8 7 -20z m190 -100 c0 -48 -28
-105 -77 -159 -42 -47 -53 -50 -53 -12 0 15 -11 43 -25 62 -18 24 -22 37 -14
44 7 8 14 5 24 -8 11 -14 19 -16 41 -9 34 11 40 26 19 47 -9 9 -14 16 -10 16
3 0 2 8 -4 18 -12 23 7 40 42 36 15 -1 29 2 33 7 11 19 24 -3 24 -42z m-155
-36 c-13 -13 -30 -19 -57 -22 -14 -2 -8 -21 6 -21 17 0 29 -27 15 -36 -6 -3
-11 -4 -13 -3 -37 57 -40 74 -11 70 3 -1 14 8 25 19 11 11 26 17 35 14 13 -5
13 -8 0 -21z m170 -160 c-4 -85 -13 -162 -20 -180 -8 -20 -10 -35 -4 -38 16
-10 10 -32 -11 -38 -16 -4 -21 1 -26 21 -3 15 -10 42 -16 60 -5 18 -8 36 -5
39 4 3 -7 30 -23 60 l-30 56 44 41 c24 22 53 60 65 84 12 23 24 42 28 42 3 0
2 -66 -2 -147z m-175 50 c0 -26 41 -136 58 -155 13 -16 12 -18 -13 -28 -24 -9
-32 -7 -51 11 l-23 21 -66 -64 c-76 -75 -99 -72 -31 3 25 28 46 60 46 70 0 10
9 23 20 29 11 6 20 16 20 22 0 7 -7 5 -17 -4 -24 -21 -93 -49 -104 -43 -4 3
-39 -11 -76 -31 -37 -20 -126 -67 -196 -105 -70 -38 -135 -76 -143 -84 -9 -8
-20 -13 -25 -9 -6 3 -25 -6 -44 -21 -44 -33 -45 -59 -5 -140 28 -59 27 -74 -7
-75 -20 0 -73 -73 -73 -100 0 -14 7 -38 15 -54 8 -15 15 -30 15 -32 0 -2 -18
-4 -40 -4 -36 0 -40 2 -40 26 0 17 6 28 20 31 11 3 20 10 20 15 0 6 -7 7 -17
2 -10 -4 -42 -10 -72 -12 -55 -4 -81 -18 -74 -39 5 -14 -175 -6 -194 9 -7 5
-13 4 -15 -3 -3 -9 -9 -9 -22 -2 -16 9 -14 11 13 16 17 4 66 4 109 1 55 -4 73
-2 62 5 -12 8 -8 11 18 11 18 0 31 4 28 9 -3 5 -24 8 -46 7 -23 -1 -43 1 -46
6 -3 4 -10 8 -15 8 -6 0 -8 -4 -5 -8 3 -5 -14 -9 -36 -11 -23 -1 -57 -9 -76
-16 -48 -21 -61 -19 -55 5 3 12 2 20 -3 19 -5 -1 -20 -1 -34 0 -24 2 -25 2 -5
17 11 8 28 21 37 29 10 8 49 31 88 50 61 31 69 38 61 54 -13 24 -4 33 18 19
14 -8 28 -5 65 17 31 18 43 30 36 35 -7 4 -11 13 -8 20 3 9 8 9 20 -3 8 -9 18
-14 20 -11 3 2 19 9 37 14 l31 9 -18 -24 c-17 -24 -50 -43 -152 -87 -30 -12
-75 -39 -101 -58 -26 -19 -56 -40 -66 -47 -14 -9 -2 -11 62 -11 44 0 105 -3
135 -6 39 -5 51 -4 40 3 -18 13 -10 14 54 11 32 -1 38 1 33 14 -4 10 -1 16 9
16 9 0 12 -5 8 -12 -5 -8 6 -9 41 -4 45 6 64 18 65 39 0 5 -4 6 -8 3 -4 -2
-43 -6 -86 -7 -44 -2 -84 -9 -91 -15 -14 -14 -185 -27 -185 -15 0 5 6 12 13
14 9 4 9 6 -1 6 -7 1 -15 -6 -18 -14 -4 -8 -11 -15 -16 -15 -20 0 16 32 64 56
56 28 65 30 47 7 -9 -11 -3 -9 19 6 18 12 30 27 27 32 -4 5 -1 9 5 9 12 0 36
-47 27 -56 -3 -3 -33 -9 -66 -13 -33 -4 -64 -11 -68 -15 -13 -13 107 -3 134
11 14 7 34 13 44 13 23 0 23 4 3 35 -16 24 -12 45 7 45 11 0 39 -61 33 -71 -2
-4 5 -5 16 -2 25 7 25 16 -2 69 -12 24 -20 45 -17 47 2 2 25 18 52 36 34 23
49 28 52 19 37 -103 54 -143 63 -146 16 -5 -22 125 -46 158 -12 15 -23 47 -26
72 -3 24 -14 65 -25 90 -11 26 -17 49 -14 52 4 3 1 6 -6 6 -8 0 -11 7 -7 15 8
21 -11 19 -23 -2 -8 -15 -12 -16 -23 -5 -11 11 -10 15 2 22 28 18 53 6 66 -32
7 -20 26 -66 43 -102 30 -65 30 -66 58 -54 75 33 589 304 604 319 10 10 19 17
21 16 2 -1 -3 4 -11 10 -16 14 -15 15 14 31 28 16 35 15 35 -5z m-770 -133 c0
-16 -57 -40 -95 -40 -47 0 -37 16 23 34 57 18 72 19 72 6z m660 -16 c-24 -14
-24 -15 -2 -9 14 4 -14 -28 -75 -87 -54 -51 -156 -150 -228 -219 -119 -116
-133 -126 -160 -122 -28 4 -33 12 -57 79 l-27 74 22 14 c12 8 39 18 61 22 23
4 40 13 43 23 5 17 345 196 374 196 21 0 39 15 18 15 -8 1 -3 7 11 15 33 19
52 18 20 -1z m190 -100 c8 -27 25 -62 37 -77 12 -16 27 -44 33 -63 12 -34 30
-47 30 -20 0 8 3 16 8 19 4 2 1 2 -5 1 -19 -5 -16 16 3 23 9 3 11 9 6 12 -14
9 -25 51 -14 51 6 0 17 -19 26 -41 15 -38 15 -43 1 -65 -8 -13 -20 -24 -25
-24 -6 0 -10 -4 -10 -10 0 -5 9 -10 20 -10 11 0 20 -4 20 -10 0 -5 -9 -10 -21
-10 -16 0 -19 -4 -13 -22 15 -51 57 -126 68 -122 12 4 86 -61 86 -77 0 -11
-24 -12 -70 -3 -34 7 -38 13 -85 137 -15 37 -42 90 -61 118 -24 36 -34 62 -34
90 0 22 -10 61 -23 87 -13 26 -21 54 -19 61 8 24 27 4 42 -45z m344 -80 c113
-37 190 -104 241 -209 26 -53 29 -69 28 -145 -2 -105 -5 -130 -15 -130 -4 0
-5 -7 -2 -15 4 -8 2 -15 -3 -15 -9 0 -37 -50 -34 -58 2 -3 -62 -65 -105 -102
-16 -13 -30 -22 -31 -20 -1 3 -10 -2 -20 -10 -10 -8 -34 -17 -53 -18 -19 -2
-37 -7 -40 -10 -5 -6 -23 -7 -42 -2 -21 5 -86 2 -96 -4 -7 -4 -12 -2 -12 4 0
6 -6 10 -12 9 -20 -4 -98 23 -98 33 0 5 -4 6 -10 3 -5 -3 -10 -2 -10 4 0 5
-10 13 -22 17 -27 8 -115 100 -124 129 -4 11 -10 22 -15 25 -4 3 -10 17 -12
30 -3 14 -10 37 -16 52 -12 32 -9 166 4 188 5 8 10 20 11 26 4 24 74 124 99
140 35 23 44 10 17 -24 -99 -124 -124 -233 -82 -358 22 -65 88 -148 144 -184
46 -28 135 -50 199 -49 63 0 163 31 159 48 -1 7 2 10 8 6 14 -9 92 51 121 93
55 81 67 235 25 327 -44 98 -118 159 -235 195 -36 12 -75 17 -102 14 -56 -7
-52 -7 -67 -5 -8 0 -12 7 -10 14 10 27 129 28 212 1z m-1534 -18 c76 -13 180
-70 161 -89 -7 -7 -33 2 -82 28 -68 35 -78 38 -158 38 -71 0 -94 -4 -131 -23
-68 -36 -94 -57 -133 -109 -75 -98 -87 -193 -42 -316 28 -79 76 -137 103 -128
14 4 14 3 3 -5 -12 -8 -8 -14 20 -31 19 -11 39 -25 46 -30 21 -19 114 -34 173
-28 110 10 210 77 263 177 24 46 57 66 57 34 0 -40 -126 -204 -144 -187 -3 4
-6 1 -6 -6 0 -7 -4 -9 -10 -6 -5 3 -10 2 -10 -3 0 -9 -79 -39 -92 -34 -5 1 -8
-1 -8 -6 0 -4 -38 -7 -85 -7 -47 0 -85 3 -85 7 0 4 -16 10 -35 14 -19 3 -39
12 -46 20 -6 8 -17 14 -24 14 -20 0 -111 94 -128 131 -15 35 -26 63 -28 77 0
4 -5 13 -11 19 -6 7 -8 20 -4 28 3 8 1 15 -5 15 -6 0 -9 7 -5 15 3 8 2 15 -3
15 -18 0 4 102 39 175 73 153 232 231 410 201z m363 -26 c6 -22 2 -25 -64 -63
-40 -22 -49 -24 -59 -13 -16 21 4 49 54 74 52 26 62 27 69 2z m1062 3 c-11 -2
-30 -6 -42 -9 -37 -7 -26 -20 12 -16 l35 4 0 -94 c0 -72 -4 -99 -17 -118 -16
-24 -16 -24 0 -11 15 12 17 11 17 -8 0 -19 -3 -20 -20 -11 -22 12 -28 32 -33
110 l-3 55 -2 -57 c-2 -44 -6 -58 -17 -58 -8 0 -15 5 -15 11 0 5 6 7 13 3 8
-5 8 -3 -2 9 -7 9 -16 15 -20 12 -4 -2 -6 10 -4 28 2 24 1 27 -5 13 -8 -19 -9
-19 -15 -1 -9 22 -7 24 24 30 13 3 30 13 37 22 11 15 10 20 -5 33 -20 17 -24
41 -8 52 6 4 28 7 50 7 22 -1 31 -3 20 -6z m-1510 -33 c-90 -12 -132 -29 -184
-76 -29 -26 -62 -69 -78 -102 -24 -49 -28 -69 -27 -137 0 -71 4 -88 32 -140
35 -64 37 -87 3 -32 -52 84 -66 199 -35 290 39 114 172 207 294 205 l45 -1
-50 -7z m1581 -4 c9 -6 -23 -126 -37 -141 -19 -19 -19 -18 -19 68 l0 87 28 -6
c15 -4 28 -7 28 -8z m47 -19 c16 -11 15 -15 -16 -45 l-34 -33 4 33 c8 62 15
69 46 45z m-1615 -82 c23 -90 22 -104 -16 -148 -12 -13 -17 -15 -24 -5 -12 20
-9 32 5 19 8 -6 17 -8 21 -4 4 4 -4 12 -16 19 -19 10 -25 25 -35 101 -6 48 -9
91 -7 95 3 5 15 8 27 8 19 0 25 -11 45 -85z m38 33 c-3 -29 -6 -64 -7 -78 0
-23 -38 89 -39 118 0 6 12 12 26 12 26 0 27 -1 20 -52z m64 36 c0 -8 -51 -106
-54 -102 -1 1 0 28 2 59 3 53 5 56 28 51 13 -2 24 -6 24 -8z m61 -3 c27 -22
24 -30 -17 -37 -30 -6 -46 -22 -40 -40 3 -7 -11 -27 -30 -45 -43 -42 -43 -30
2 54 31 58 38 66 54 57 30 -16 34 -12 9 10 -13 10 -19 19 -13 20 7 0 22 -9 35
-19z m1620 -103 c28 -55 23 -60 -7 -8 -14 25 -44 65 -67 90 l-42 45 48 -45
c27 -25 57 -62 68 -82z m-1858 7 c4 -33 4 -53 0 -45 -3 8 -19 41 -35 73 l-29
57 23 9 c27 10 32 -1 41 -94z m321 81 c-10 -8 -22 -12 -26 -10 -4 3 -5 -1 -2
-9 3 -8 1 -18 -5 -21 -6 -4 -8 -13 -4 -21 9 -25 -13 -17 -24 8 -10 21 -7 26
30 50 41 27 67 29 31 3z m1427 -2 c12 -14 8 -21 -26 -51 -22 -18 -53 -43 -69
-55 l-29 -22 7 28 c8 32 74 116 92 116 6 0 18 -7 25 -16z m-1790 -61 c22 -55
31 -83 24 -83 -13 0 -135 62 -135 69 0 5 7 14 15 21 13 11 21 8 48 -16 18 -17
41 -36 52 -43 11 -7 -2 8 -30 33 -48 45 -49 48 -31 62 11 7 23 14 27 14 4 0
17 -26 30 -57z m1422 35 c8 -28 6 -29 -17 -13 -10 8 -15 18 -11 24 10 17 22
13 28 -11z m413 -19 c16 -18 16 -22 4 -29 -8 -4 -46 -31 -85 -59 -38 -28 -75
-51 -82 -51 -29 0 -10 38 35 72 26 20 58 48 71 62 30 31 33 32 57 5z m-425 -6
c20 -12 35 -35 53 -82 13 -36 23 -67 22 -68 -1 -2 -41 14 -88 34 -80 34 -86
38 -76 57 6 12 12 23 14 25 2 2 34 -21 71 -50 37 -29 59 -43 48 -30 -11 12
-41 39 -68 58 -46 34 -47 36 -31 54 21 23 19 23 55 2z m469 -67 c0 -19 -106
-68 -140 -64 -31 3 -30 4 42 56 66 47 74 50 86 35 6 -9 12 -22 12 -27z m-1630
13 c0 -10 -82 -60 -89 -53 -9 9 62 72 75 67 8 -3 14 -9 14 -14z m-290 -22 c41
-18 81 -36 88 -40 25 -16 8 -77 -22 -77 -6 0 -4 5 4 11 13 9 12 10 -2 5 -11
-3 -49 13 -96 42 -73 43 -78 49 -69 70 6 12 13 22 16 22 3 0 40 -15 81 -33z
m1694 -15 c-13 -31 -11 -52 5 -53 49 -3 205 2 209 6 3 3 -12 5 -34 5 l-39 1
45 23 c32 17 47 21 52 12 11 -17 10 -106 -2 -106 -5 0 -48 9 -95 20 -95 22
-140 26 -115 10 8 -5 12 -10 8 -10 -3 0 -14 -3 -24 -7 -14 -5 -16 -2 -12 15 4
14 2 22 -7 22 -17 0 -18 79 -2 99 10 12 12 12 15 -3 2 -9 0 -25 -4 -34z m-279
-27 l50 -23 -62 -1 c-55 -1 -63 1 -63 17 0 19 8 33 19 31 3 0 29 -11 56 -24z
m-1455 -21 c33 -20 59 -38 57 -40 -2 -2 -34 3 -70 12 -50 13 -67 21 -67 34 0
15 8 30 16 30 1 0 30 -16 64 -36z m810 11 c0 -9 -10 -20 -22 -25 l-23 -9 24 0
c14 -1 50 -6 82 -13 40 -8 54 -15 46 -22 -9 -11 -75 -10 -107 0 -13 4 -13 6 0
14 11 7 5 10 -22 10 -20 0 -39 -6 -41 -12 -4 -9 -6 -8 -6 3 -1 8 4 20 11 27 9
9 8 12 -6 12 -15 0 -16 3 -6 15 17 20 70 20 70 0z m768 -43 c9 -27 33 -42 51
-32 13 6 24 5 37 -6 18 -14 18 -15 -3 -5 -15 8 -22 8 -25 0 -2 -5 -10 -11 -18
-13 -8 -2 -22 -6 -30 -9 -8 -3 -54 -11 -102 -17 -49 -7 -88 -14 -88 -17 0 -5
53 0 134 13 25 4 20 -1 -28 -26 -32 -17 -56 -34 -53 -37 3 -3 22 5 42 17 45
28 57 19 24 -18 -14 -15 -31 -36 -38 -47 -17 -25 33 27 77 80 35 43 34 36 -7
-59 -12 -27 -19 -51 -17 -53 5 -5 18 23 50 109 18 47 40 62 81 58 26 -3 27 -4
19 -24 -5 -14 -9 -15 -16 -4 -5 8 -7 -4 -3 -32 2 -25 -1 -73 -7 -107 -11 -60
-13 -63 -40 -63 -15 0 -28 3 -28 7 0 3 16 35 35 71 20 35 34 67 31 69 -3 3
-21 -27 -40 -65 -30 -60 -39 -69 -57 -65 -11 3 -23 12 -26 19 -3 8 -8 12 -13
9 -13 -8 -92 67 -86 82 3 8 1 11 -4 8 -10 -6 -33 37 -45 86 -6 23 -2 25 80 48
47 13 84 26 81 28 -2 3 -38 -5 -78 -16 -92 -26 -88 -26 -88 5 l0 26 97 -4 c66
-2 98 -7 101 -16z m-1593 -5 l50 -14 -40 -7 c-22 -4 -50 -10 -62 -13 -19 -4
-23 -1 -23 21 0 30 6 31 75 13z m741 -21 c1 -30 -13 -43 -29 -27 -8 8 -7 11 4
11 12 0 12 2 0 9 -17 11 -7 45 12 39 6 -3 12 -17 13 -32z m1290 -17 c-4 -29
-14 -66 -22 -83 -8 -17 -12 -22 -8 -11 3 11 11 48 17 83 13 75 22 83 13 11z
m-118 15 c45 -9 82 -21 82 -26 0 -4 -11 -6 -25 -2 -14 3 -25 2 -25 -4 0 -5 11
-13 25 -16 14 -4 24 -10 21 -14 -3 -5 -56 4 -118 20 -129 32 -132 32 -122 17
3 -6 1 -15 -6 -19 -9 -6 -7 -9 7 -14 11 -4 35 -38 58 -86 21 -44 40 -78 43
-76 2 2 -10 31 -27 65 -35 68 -36 71 -18 71 6 0 32 -23 55 -50 37 -43 42 -53
31 -66 -16 -20 -73 -49 -120 -62 l-36 -10 -22 80 c-11 44 -18 85 -14 90 3 6
24 -24 45 -66 22 -43 42 -76 45 -73 3 3 -16 43 -42 88 -52 94 -51 113 7 149
40 24 51 24 156 4z m-1818 1 c0 -3 -30 -20 -67 -39 -38 -19 -65 -35 -60 -36 4
0 39 16 77 35 74 37 105 38 94 1 -9 -32 -23 -41 -103 -71 -60 -23 -75 -25 -82
-14 -5 8 -7 22 -5 32 2 9 1 17 -4 17 -4 0 -10 11 -12 25 -5 22 -1 25 31 31 20
3 50 10 66 14 35 10 65 12 65 5z m1700 -77 c-8 -7 -12 -9 -8 -4 8 10 -14 36
-24 29 -4 -2 -5 3 -1 12 5 15 8 14 27 -4 17 -18 18 -23 6 -33z m103 17 c78
-17 85 -22 67 -55 -9 -17 -13 -17 -73 8 -35 15 -72 38 -82 51 -14 18 -15 23
-4 19 8 -3 49 -13 92 -23z m-1724 -2 c35 -34 39 -53 24 -102 -7 -25 -18 -63
-24 -84 -9 -33 -13 -37 -32 -31 -12 4 -25 11 -28 16 -3 5 -9 9 -13 9 -14 -2
-22 0 -34 7 -10 7 -6 23 18 70 17 34 35 62 40 62 5 0 7 7 4 15 -4 8 -1 15 5
15 6 0 10 3 10 8 -3 14 1 32 6 32 3 0 14 -8 24 -17z m411 8 c0 -5 -6 -12 -12
-14 -8 -3 -6 -6 5 -6 9 -1 17 -5 17 -10 0 -5 -20 -9 -45 -9 -25 0 -45 4 -45 9
0 5 9 9 20 9 11 0 20 7 20 15 0 8 9 15 20 15 11 0 20 -4 20 -9z m240 -6 c0
-10 -11 -15 -35 -15 -24 0 -35 5 -35 15 0 10 11 15 35 15 24 0 35 -5 35 -15z
m-581 -15 c9 0 11 -27 5 -59 -4 -20 -7 -22 -16 -10 -7 11 -8 9 -3 -6 9 -23 9
-32 7 -92 -2 -41 -3 -43 -33 -43 -21 0 -30 4 -26 13 2 6 15 48 28 91 17 58 20
81 11 84 -7 2 -12 11 -12 19 0 10 6 13 16 9 9 -3 19 -6 23 -6z m168 -54 c39
-42 40 -45 24 -60 -10 -9 -20 -16 -24 -16 -3 0 -25 27 -48 60 -23 33 -44 58
-47 56 -2 -3 16 -33 42 -68 43 -57 45 -64 29 -75 -9 -7 -20 -13 -23 -13 -11 0
-100 138 -100 156 0 13 9 14 53 10 45 -5 57 -12 94 -50z m73 34 c0 -5 -6 -10
-12 -10 -10 0 -10 -2 -1 -8 8 -5 8 -12 -3 -26 -14 -19 -15 -19 -44 9 -22 21
-27 31 -18 37 18 11 78 10 78 -2z m-376 -13 c-2 -7 -17 -21 -32 -30 -33 -20
-83 -62 -62 -51 8 4 27 16 43 26 15 11 27 17 27 14 0 -14 -35 -76 -43 -76 -14
0 -68 61 -64 73 2 8 108 54 129 56 4 1 5 -5 2 -12z m1809 -19 c30 -11 32 -16
13 -40 -12 -16 -14 -16 -32 5 -11 12 -26 31 -34 41 -14 18 -13 19 5 12 11 -4
32 -13 48 -18z m-1605 -68 c40 -56 41 -60 23 -70 -31 -16 -36 -13 -59 35 -22
45 -29 95 -14 95 4 0 27 -27 50 -60z m1395 1 c3 -16 9 -40 13 -55 5 -23 3 -26
-21 -26 -26 0 -27 2 -21 38 3 20 6 45 6 55 0 28 17 20 23 -12z m-1438 -41 c20
-39 19 -50 -5 -50 -17 0 -20 7 -20 40 0 48 4 50 25 10z"/>
<path d="M1150 1180 c-24 -8 -24 -8 5 -8 17 0 41 4 55 8 24 8 24 8 -5 8 -16 0
-41 -4 -55 -8z"/>
<path d="M664 1012 c3 -6 2 -13 -3 -17 -6 -3 -8 -12 -5 -19 3 -8 -2 -39 -11
-71 -9 -31 -15 -59 -12 -61 4 -4 21 52 48 155 2 7 -2 16 -10 19 -8 2 -11 0 -7
-6z"/>
</g>
</svg>
