<?xml version="1.0" standalone="no"?>
<!DOCTYPE svg PUBLIC "-//W3C//DTD SVG 20010904//EN"
 "http://www.w3.org/TR/2001/REC-SVG-20010904/DTD/svg10.dtd">
<svg version="1.0" xmlns="http://www.w3.org/2000/svg"
 width="300.000000pt" height="206.000000pt" viewBox="0 0 300.000000 206.000000"
 preserveAspectRatio="xMidYMid meet">
<metadata>
Created by potrace 1.10, written by Peter Selinger 2001-2011
</metadata>
<g transform="translate(0.000000,206.000000) scale(0.100000,-0.100000)"
fill="#000000" stroke="none">
<path d="M1510 1881 c-190 -43 -490 -110 -668 -149 -225 -49 -331 -77 -351
-92 -52 -37 -56 -69 -22 -226 80 -369 180 -786 195 -808 13 -20 16 -54 17
-168 0 -165 10 -203 58 -235 l34 -23 699 0 c767 0 741 -2 773 60 13 25 15 99
15 505 0 522 0 519 -60 550 -16 8 -40 15 -54 15 -29 0 -25 -13 -75 220 -53
249 -77 343 -91 369 -15 29 -69 61 -100 60 -14 0 -180 -36 -370 -78z m399 2
c12 -10 24 -34 27 -53 l6 -35 -464 -103 c-254 -57 -573 -128 -707 -158 -195
-44 -246 -53 -252 -42 -14 21 -10 84 4 97 8 6 259 65 558 131 299 67 600 134
669 150 69 15 128 29 131 29 4 1 16 -7 28 -16z m79 -298 c-2 0 -118 -27 -258
-58 -812 -180 -1108 -247 -1132 -255 -26 -10 -27 -9 -43 65 -9 41 -15 76 -13
78 1 1 248 58 548 125 300 67 617 139 705 159 l160 37 18 -75 c9 -41 16 -75
15 -76z m57 -237 l7 -38 -485 0 c-403 0 -488 -2 -500 -14 -10 -11 -34 -13
-103 -8 l-89 5 75 19 c41 10 82 17 91 15 25 -6 198 25 449 82 124 27 288 64
365 82 77 17 142 33 145 36 5 5 32 -103 45 -179z m133 -114 l22 -15 0 -470 c0
-456 -1 -470 -20 -489 -20 -20 -33 -20 -709 -20 l-690 0 -21 27 c-20 26 -21
32 -18 486 l3 459 24 19 c22 18 49 19 705 19 601 0 684 -2 704 -16z m-1494
-239 c-1 -193 1 -243 11 -235 10 8 12 -4 11 -54 -1 -62 -2 -64 -19 -48 -11 10
-17 25 -14 39 2 12 1 20 -3 18 -4 -3 -8 23 -8 58 -1 61 -25 198 -63 351 -10
44 -18 80 -17 81 2 2 26 10 53 18 28 8 50 15 50 16 0 1 0 -109 -1 -244z"/>
<path d="M854 1129 c-9 -15 -9 -192 0 -207 9 -15 382 -17 391 -2 5 8 9 153 6
208 -1 16 -386 18 -397 1z m341 -104 l0 -55 -145 0 -145 0 3 55 4 55 141 0
142 0 0 -55z"/>
<path d="M1844 1125 c-15 -38 1 -45 109 -45 109 0 134 9 121 44 -9 23 -222 24
-230 1z"/>
<path d="M1744 955 c-4 -8 -4 -22 0 -30 4 -12 32 -15 159 -15 161 0 185 6 171
44 -5 14 -28 16 -165 16 -133 0 -161 -3 -165 -15z"/>
<path d="M1575 696 c-71 -31 -123 -128 -110 -205 21 -125 162 -199 272 -143
40 21 41 21 79 2 90 -46 209 -8 255 81 30 61 24 152 -14 203 -56 73 -173 100
-245 56 -32 -20 -32 -20 -69 0 -44 23 -122 26 -168 6z m166 -82 c51 -48 57
-109 17 -167 -41 -58 -112 -73 -169 -34 -46 31 -61 62 -56 120 4 49 31 90 72
108 38 17 104 3 136 -27z m220 21 c36 -19 69 -70 69 -108 0 -45 -26 -95 -62
-117 -37 -23 -70 -25 -117 -9 -24 9 -30 16 -25 28 27 65 27 117 0 182 -15 34
81 51 135 24z"/>
<path d="M874 596 c-15 -12 -17 -18 -8 -33 10 -16 27 -18 165 -18 140 0 154 2
157 18 8 41 -13 47 -157 47 -104 0 -142 -4 -157 -14z"/>
<path d="M870 435 c-7 -8 -10 -22 -6 -30 5 -13 38 -15 225 -15 137 0 222 4
226 10 3 6 3 19 0 30 -6 19 -15 20 -219 20 -177 0 -216 -3 -226 -15z"/>
</g>
</svg>
