<?xml version="1.0" standalone="no"?>
<!DOCTYPE svg PUBLIC "-//W3C//DTD SVG 20010904//EN"
 "http://www.w3.org/TR/2001/REC-SVG-20010904/DTD/svg10.dtd">
<svg version="1.0" xmlns="http://www.w3.org/2000/svg"
 width="120.000000pt" height="104.000000pt" viewBox="0 0 120.000000 104.000000"
 preserveAspectRatio="xMidYMid meet">
<metadata>
Created by potrace 1.10, written by Peter Selinger 2001-2011
</metadata>
<g transform="translate(0.000000,104.000000) scale(0.100000,-0.100000)"
fill="#000000" stroke="none">
<path d="M735 826 c-16 -8 -118 -103 -226 -212 l-196 -199 -23 -93 c-12 -51
-19 -96 -16 -100 4 -3 49 4 101 17 l94 24 210 212 c204 204 211 212 211 251 0
46 -19 78 -60 99 -35 18 -56 18 -95 1z m84 -31 c41 -21 53 -64 30 -107 -10
-19 -14 -17 -70 38 -58 57 -59 59 -36 71 29 16 42 16 76 -2z m-59 -90 l55 -55
-175 -175 -175 -175 -57 57 -58 58 172 172 c95 95 175 173 178 173 3 0 30 -25
60 -55z m-367 -373 l47 -48 -57 -13 c-32 -7 -63 -14 -69 -17 -6 -3 -4 20 5 61
9 36 18 65 21 65 3 0 27 -22 53 -48z"/>
</g>
</svg>
