<?xml version="1.0" standalone="no"?>
<!DOCTYPE svg PUBLIC "-//W3C//DTD SVG 20010904//EN"
 "http://www.w3.org/TR/2001/REC-SVG-20010904/DTD/svg10.dtd">
<svg version="1.0" xmlns="http://www.w3.org/2000/svg"
 width="176.000000pt" height="132.000000pt" viewBox="0 0 176.000000 132.000000"
 preserveAspectRatio="xMidYMid meet">
<metadata>
Created by potrace 1.10, written by Peter Selinger 2001-2011
</metadata>
<g transform="translate(0.000000,132.000000) scale(0.100000,-0.100000)"
fill="#000000" stroke="none">
<path d="M442 1021 c-9 -5 -13 -24 -11 -57 l3 -49 -82 -5 c-143 -9 -100 -25
76 -28 140 -2 162 0 162 13 0 12 -13 15 -60 15 l-60 0 0 40 0 40 333 -1 332 0
132 -157 132 -157 1 -82 0 -83 -35 0 c-28 0 -37 5 -45 25 -9 24 -56 55 -84 55
-29 0 -68 -24 -82 -52 l-15 -28 -209 0 -209 0 -16 30 c-22 42 -80 58 -124 36
-17 -10 -37 -28 -43 -41 -8 -18 -19 -25 -40 -25 l-28 0 0 100 0 100 85 0 c70
0 85 3 85 15 0 13 -22 15 -162 13 -100 -2 -163 -7 -163 -13 0 -5 27 -11 60
-13 l60 -3 -3 -114 c-4 -126 -8 -118 61 -115 20 1 37 -3 37 -8 0 -6 12 -24 26
-41 20 -24 34 -31 63 -31 43 0 78 22 91 56 l10 24 209 0 c200 0 210 -1 216
-20 10 -30 54 -60 90 -60 36 0 80 30 90 61 6 18 14 20 53 17 l47 -3 2 110 2
110 -142 165 -143 165 -344 2 c-190 2 -351 -1 -358 -6z m237 -505 c12 -25 11
-31 -6 -55 -26 -33 -65 -39 -92 -12 -25 25 -27 49 -5 79 24 35 84 28 103 -12z
m607 9 c21 -33 7 -77 -30 -90 -32 -11 -54 0 -75 37 -35 62 66 112 105 53z"/>
<path d="M996 934 c-11 -29 -7 -199 6 -212 15 -15 274 -17 283 -2 3 5 -36 59
-87 119 l-93 111 -51 0 c-38 0 -53 -4 -58 -16z m162 -99 c39 -46 72 -86 72
-87 0 -2 -45 -3 -100 -3 l-100 0 0 88 0 87 28 0 c22 0 41 -17 100 -85z"/>
<path d="M358 843 c-17 -21 8 -24 167 -21 125 3 150 5 150 18 0 13 -24 15
-153 15 -110 0 -156 -4 -164 -12z"/>
<path d="M222 783 c2 -12 12 -18 31 -17 15 0 85 1 157 2 108 2 130 5 130 17 0
13 -25 15 -161 15 -147 0 -160 -1 -157 -17z"/>
</g>
</svg>
